<?xml version="1.0" encoding="utf-8"?>
<!-- Generator: Adobe Illustrator 22.1.0, SVG Export Plug-In . SVG Version: 6.00 Build 0)  -->
<svg version="1.1" id="Camada_1" xmlns="http://www.w3.org/2000/svg" xmlns:xlink="http://www.w3.org/1999/xlink" x="0px" y="0px"
	 viewBox="0 0 68.7 52" style="enable-background:new 0 0 68.7 52;" xml:space="preserve">
<title>decolagem</title>
<g id="Camada_2_1_">
	<g id="Camada_2-2">
		<g>
			<path d="M59.1,42.4c-1.2,0-2.4-0.2-3.6-0.7c-2.3-0.9-4.1-2.7-5.2-5l1.8-0.8c0.8,1.8,2.2,3.2,4.1,4c3.9,1.6,8.3-0.3,9.9-4.1
				c1.6-3.9-0.3-8.3-4.1-9.9c-1.9-0.8-3.9-0.8-5.8,0c-1.9,0.8-3.3,2.2-4.1,4.1l-1.9-0.8c1-2.4,2.8-4.2,5.2-5.2c2.4-1,5-1,7.3,0
				c4.9,2,7.2,7.6,5.2,12.5C66.4,40.2,62.8,42.4,59.1,42.4z"/>
		</g>
		<g>
			<path d="M34.4,40.6v-12H55c2.2,0,4,1.8,4,3.9c0,1.9-1.3,3.5-3.2,3.9L34.4,40.6z M36.4,30.6v7.6l19-3.7c0.9-0.2,1.6-1,1.6-1.9
				c0-1.1-0.9-1.9-2-1.9H36.4z"/>
		</g>
		<g>
			<path d="M31.5,44.9H11.6c-4.6,0-8.3-3.7-8.3-8.3c0-6.9,4.9-13,11.7-14.3l1.2-0.2v11.7c0,1.5-1.2,2.7-2.7,2.7H5.3c0,0,0,0.1,0,0.1
				c0,3.5,2.8,6.3,6.3,6.3h19.9c1.6,0,2.9-1.3,2.9-2.9V27.1c0-1.6-1.3-2.9-2.9-2.9h-6.2v-2h6.2c2.7,0,4.9,2.2,4.9,4.9V40
				C36.4,42.7,34.2,44.9,31.5,44.9z M5.5,34.5h8c0.4,0,0.7-0.3,0.7-0.7v-9.2C9.7,25.9,6.3,29.8,5.5,34.5z"/>
		</g>
		<g>
			<rect x="4.7" y="46.4" transform="matrix(0.7071 -0.7071 0.7071 0.7071 -30.6992 20.7849)" width="10.1" height="2"/>
		</g>
		<g>
			<rect x="27.5" y="42.4" transform="matrix(0.7071 -0.7071 0.7071 0.7071 -25.2012 34.0555)" width="2" height="10.1"/>
		</g>
		<g>
			<polygon points="38.2,52 0,52 0,49.7 2,49.7 2,50 36.2,50 36.2,49.7 38.2,49.7 			"/>
		</g>
		<g>
			<rect x="25.3" y="14.4" width="18.1" height="2"/>
		</g>
		<g>
			<rect x="0.2" y="14.4" width="18.1" height="2"/>
		</g>
		<g>
			<polygon points="28.6,9.7 21.7,2.8 14.8,9.7 13.4,8.3 21.7,0 30,8.3 			"/>
		</g>
		<g>
			<rect x="20.7" y="1.4" width="2" height="26.7"/>
		</g>
	</g>
</g>
</svg>
