<?xml version="1.0" encoding="utf-8"?>
<!-- Generator: Adobe Illustrator 22.1.0, SVG Export Plug-In . SVG Version: 6.00 Build 0)  -->
<svg version="1.1" id="Camada_1" xmlns="http://www.w3.org/2000/svg" xmlns:xlink="http://www.w3.org/1999/xlink" x="0px" y="0px"
	 viewBox="0 0 257.4 191.2" style="enable-background:new 0 0 257.4 191.2;" xml:space="preserve">
<g>
	<path d="M209.1,55.2c-10.3,0-19.6,5.8-24.2,15h-38.8v-4c0-7.7-6.2-13.9-13.9-13.9h-24.3V36.6h57.3v-6H45v6h56.9v15.7h-8.2
		c-22.3,0-40.4,18.1-40.4,40.4c0,12.1,9.2,22,20.9,23.3l-13.9,13.9H50.1v-0.6h-6v6.6h48.5v-6H68.7l13.8-13.8h10.2v-6h-16
		c-9.6,0-17.4-7.8-17.4-17.4c0,0,0-0.1,0-0.1H82c4.3,0,7.8-3.5,7.8-7.8V58.5c1.3-0.1,2.6-0.2,3.9-0.2h38.5c4.4,0,7.9,3.5,7.9,7.9
		v35.9c0,4.4-3.5,7.9-7.9,7.9h-23.1v6h3.6l13.8,13.9h-17.1v6h41.8v-6.6h-6v0.6h-10.3L121.1,116h11.1c7.4,0,13.4-5.7,13.9-13
		l39.4-7.7c4.8,8.5,13.8,13.9,23.6,13.9c14.9,0,27-12.1,27-27S224,55.2,209.1,55.2z M83.8,84.8c0,1-0.8,1.8-1.8,1.8H59.9
		c2.3-12.8,11.7-23.2,23.9-26.8V84.8z M146.3,76.2h51.6c2.9,0,5.2,2.3,5.2,5.2c0,2.5-1.8,4.6-4.2,5.2l-52.6,10.3V76.2z M209.1,103.2
		c-6.9,0-13.4-3.5-17.3-9.1l8.3-1.6c5.2-1.1,9-5.7,9-11c0-6.2-5-11.2-11.2-11.2h-6c3.9-5.6,10.2-9,17.2-9c11.6,0,21,9.4,21,21
		S220.7,103.2,209.1,103.2z"/>
	<polygon points="104.1,157.4 104.1,103.3 98.1,103.3 98.1,157.5 81.9,141.3 77.7,145.5 101.1,168.9 124.4,145.5 120.2,141.3 	"/>
</g>
</svg>
