<?xml version="1.0" encoding="utf-8"?>
<!-- Generator: Adobe Illustrator 22.1.0, SVG Export Plug-In . SVG Version: 6.00 Build 0)  -->
<svg version="1.1" id="Camada_1" xmlns="http://www.w3.org/2000/svg" xmlns:xlink="http://www.w3.org/1999/xlink" x="0px" y="0px"
	 viewBox="0 0 64 64" style="enable-background:new 0 0 64 64;" xml:space="preserve">
<style type="text/css">
	.st0{display:none;}
	.st1{display:inline;opacity:0.41;}
	.st2{display:inline;fill:none;stroke:#000000;stroke-width:0.25;stroke-miterlimit:10;}
	.st3{fill:#FFFFFF;}
</style>
<g id="Camada_1_1_" class="st0">
	<g class="st1">
		<path d="M54.4,9.4c-6-6-14.1-9.4-22.6-9.4S15.2,3.3,9.2,9.4c-6,6-9.4,14.1-9.4,22.6s3.3,16.6,9.4,22.6c6,6,14.1,9.4,22.6,9.4
			s16.6-3.3,22.6-9.4c6-6,9.4-14.1,9.4-22.6C63.8,23.5,60.5,15.4,54.4,9.4L54.4,9.4z M53.1,53.3c-5.7,5.7-13.3,8.8-21.3,8.8
			S16.2,59,10.5,53.3S1.7,40,1.7,32s3.1-15.6,8.8-21.3s13.3-8.8,21.3-8.8S47.4,5,53.1,10.7S61.9,24,61.9,32S58.8,47.6,53.1,53.3
			L53.1,53.3z"/>
		<path d="M51.8,13.1c-0.8-0.6-1.9-0.6-2.6,0.2L34.7,27.8l0,0l-0.8,0.8c-1.3-0.8-2.8-0.8-4.1,0l-0.5-0.5l1-5.2
			c0.2-1.2-0.3-2.4-1.3-3.1l-13.6-8.3c-0.9-0.5-1.9-0.3-2.5,0.5s-0.6,1.9,0.2,2.6l14.5,14.5l0,0l0.8,0.8c-0.8,1.3-0.8,2.8,0,4.1
			l-0.5,0.5l-5.2-1c-1.2-0.2-2.4,0.3-3.1,1.3l-8.3,13.6c-0.5,0.9-0.3,1.9,0.5,2.5c0.4,0.3,0.8,0.4,1.2,0.4c0.5,0,1-0.2,1.4-0.6
			l14.5-14.5l0,0l0.8-0.8c0.6,0.4,1.3,0.6,2,0.6c0.7,0,1.4-0.2,2-0.6l0.5,0.5l-1,5.2c-0.2,1.2,0.3,2.4,1.3,3.1l13.6,8.3
			c0.3,0.2,0.7,0.3,1,0.3c0.6,0,1.1-0.3,1.5-0.7c0.6-0.8,0.6-1.9-0.2-2.6L36,34.9l0,0L35.2,34c0.8-1.3,0.8-2.8,0-4.1l0.5-0.5l5.2,1
			c1.2,0.2,2.4-0.3,3.1-1.3l8.3-13.6C52.8,14.8,52.6,13.7,51.8,13.1L51.8,13.1z M13,49.4C13,49.5,13,49.5,13,49.4
			c-0.1,0-0.1,0-0.1,0S12.9,49.4,13,49.4l8.2-13.6c0.2-0.3,0.5-0.5,0.9-0.5c0.1,0,0.1,0,0.2,0l4,0.8L13,49.4z M14.4,13.2
			C14.3,13.2,14.3,13.2,14.4,13.2c0-0.1,0-0.1,0-0.1C14.4,13.1,14.4,13.1,14.4,13.2L28,21.4c0.4,0.2,0.6,0.7,0.5,1.1l-0.8,4
			L14.4,13.2z M30.3,33.5c-0.8-0.8-0.8-2.1,0-2.9c0.4-0.4,0.9-0.6,1.5-0.6c0.5,0,1.1,0.2,1.5,0.6c0.8,0.8,0.8,2.1,0,2.9
			S31.1,34.3,30.3,33.5L30.3,33.5z M49.2,50.8C49.3,50.8,49.3,50.8,49.2,50.8C49.2,50.9,49.2,50.9,49.2,50.8
			C49.2,50.9,49.2,50.9,49.2,50.8l-13.6-8.2c-0.4-0.2-0.6-0.7-0.5-1.1l0.8-4L49.2,50.8z M50.7,14.6l-8.3,13.6
			c-0.2,0.4-0.7,0.6-1.1,0.5l-4-0.8L50.7,14.6c-0.1-0.1-0.1-0.1-0.1-0.1C50.6,14.5,50.7,14.6,50.7,14.6L50.7,14.6L50.7,14.6z"/>
		<path d="M31.8,31.1c-0.2,0-0.5,0.1-0.7,0.3c-0.2,0.2-0.3,0.4-0.3,0.7c0,0.2,0.1,0.5,0.3,0.7c0.2,0.2,0.4,0.3,0.7,0.3
			c0.2,0,0.5-0.1,0.7-0.3s0.3-0.4,0.3-0.7c0-0.2-0.1-0.5-0.3-0.7C32.3,31.2,32,31.1,31.8,31.1L31.8,31.1z"/>
	</g>
</g>
<g id="Camada_3" class="st0">
	<line class="st2" x1="-1" y1="-1" x2="66.5" y2="66.5"/>
	<line class="st2" x1="64" y1="0" x2="-7.5" y2="71.5"/>
</g>
<g id="Camada_5" class="st0">
</g>
<g id="Camada_4">
	<path class="st3" d="M15.9,47.3"/>
	<path class="st3" d="M55,22.8c-3.4,0-6.5,2-8,5H34c-0.5-3.1-1.8-5.5-6-5.5H18v-5.7h16.7v-2.1H0.1v2.1H16v5.7h-0.3
		c-7,0-12.8,5.7-12.8,12.8c0,4.1,3,7.4,7,8L4,48.9H2.4v-1H0.3V51h34.4v-3.1h-2.1v1H31l-5.7-5.7h3c1.8,0,3.2-0.5,4.2-1.5
		c0.9-0.9,1.4-2.1,1.6-3.6l13.6-1.6c1.6,2.5,4.4,4.1,7.4,4.1c4.9,0,8.9-4,8.9-8.9C63.9,26.8,59.9,22.8,55,22.8z M12.8,24.8v8.3
		c0,0.1-0.1,0.1-0.1,0.1H5.2C5.9,29.2,8.9,25.9,12.8,24.8z M28,48.9H7l5.7-5.7h9.6L28,48.9z M30.9,40.2c-0.6,0.6-1.5,0.8-2.7,0.8H11
		c-3.2,0-5.8-2.6-6-5.7h7.7c1.2,0,2.2-1,2.2-2.2v-8.7c0.3,0,0.5,0,0.8,0H28c3.8,0,4.2,2.3,4.2,8.3v0.6C32.1,36.4,32.1,39,30.9,40.2z
		 M34.2,32.8c0-0.7,0-1.4,0-2.1H54c0.2,0,0.5,0.1,0.6,0.3l0,0c0.2,0.2,0.4,0.5,0.4,0.9c0,0.6-0.4,1.1-1.1,1.2l-19.8,2.3
		c0-0.6,0-1.3,0-2L34.2,32.8z M55,38.5c-1.9,0-3.8-0.8-5-2.3l4.1-0.5c2-0.3,3.7-2.2,3.6-4.2c-0.1-1-0.5-1.9-1.1-2.5l0,0
		c-0.7-0.7-1.7-1.2-2.8-1.2h-0.1c0,0,0,0-0.1,0h-4c1.2-1.8,3.3-2.9,5.6-2.9c3.7,0,6.8,3,6.8,6.8C61.8,35.4,58.8,38.5,55,38.5z"/>
</g>
<g id="ANGULO_CERTO">
</g>
</svg>
