<?xml version="1.0" encoding="utf-8"?>
<!-- Generator: Adobe Illustrator 22.1.0, SVG Export Plug-In . SVG Version: 6.00 Build 0)  -->
<svg version="1.1" id="Camada_1" xmlns="http://www.w3.org/2000/svg" xmlns:xlink="http://www.w3.org/1999/xlink" x="0px" y="0px"
	 viewBox="0 0 65.3 36.6" style="enable-background:new 0 0 65.3 36.6;" xml:space="preserve">
<title>helicoptero-silhueta_2</title>
<path d="M61.5,12.8c-2.8-1.2-6-0.1-7.6,2.4H35.4v-2.5c0-2.2-1.8-3.9-3.9-3.9h-12V2h17.8V0H0.4v2h17.1v6.8h0.2
	c-7.4,0-13.4,6-13.4,13.4c0,3.8,2.9,6.9,6.6,7.3l-5.2,5.2H2v-0.3H0v2.3h38.2v-2.3h-2v0.3h-3.8l-5.1-5.1h4.2c2.2,0,3.9-1.8,3.9-3.9
	V25l18.2-3.6c0.7,1.2,1.7,2.2,3,2.8c3.1,1.3,6.8-0.1,8.1-3.3C66.1,17.8,64.7,14.2,61.5,12.8z M29.7,34.6H8.6l5.1-5.1h10.8L29.7,34.6
	z"/>
</svg>
