<?xml version="1.0" encoding="utf-8"?>
<!-- Generator: Adobe Illustrator 22.1.0, SVG Export Plug-In . SVG Version: 6.00 Build 0)  -->
<svg version="1.1" id="Camada_1" xmlns="http://www.w3.org/2000/svg" xmlns:xlink="http://www.w3.org/1999/xlink" x="0px" y="0px"
	 viewBox="0 0 68.7 49.4" style="enable-background:new 0 0 68.7 49.4;" xml:space="preserve">
<title>pouso</title>
<g id="Camada_2_1_">
	<g id="Camada_2-2">
		<g>
			<path d="M31.5,30.5h-8.3v-2h8.3c1.6,0,2.9-1.3,2.9-2.9V12.7c0-1.6-1.3-2.9-2.9-2.9H17.7c0,0,0,0,0,0c-6.8,0-12.4,5.6-12.4,12.4
				c0,3.5,2.8,6.3,6.3,6.3h5.7v2h-5.7c-4.6,0-8.3-3.7-8.3-8.3c0-7.9,6.5-14.4,14.4-14.4c0,0,0,0,0,0h13.8c2.7,0,4.9,2.2,4.9,4.9
				v12.9C36.4,28.3,34.2,30.5,31.5,30.5z"/>
		</g>
		<g>
			<path d="M13.5,22.1H4.2v-2h9.3c0.4,0,0.7-0.3,0.7-0.7V8.8h2v10.6C16.2,20.8,15,22.1,13.5,22.1z"/>
		</g>
		<g>
			<path d="M59,28c-1.2,0-2.4-0.2-3.6-0.7c-2.3-0.9-4.1-2.7-5.1-5l1.8-0.8c0.8,1.8,2.2,3.2,4.1,4c3.9,1.6,8.3-0.3,9.9-4.1
				c1.6-3.9-0.3-8.3-4.1-9.9c-1.9-0.8-3.9-0.8-5.8,0c-1.9,0.8-3.3,2.2-4.1,4.1l-1.8-0.8c1-2.4,2.8-4.2,5.2-5.2c2.4-1,5-1,7.3,0
				c4.9,2,7.2,7.6,5.2,12.5C66.4,25.8,62.8,28,59,28z"/>
		</g>
		<g>
			<path d="M34.4,26.2v-12H55h0c2.2,0,4,1.8,4,3.9c-0.1,1.9-1.4,3.5-3.2,3.9L34.4,26.2z M36.4,16.2v7.6l19-3.8
				c0.9-0.2,1.6-1,1.6-1.9c0-1-0.9-1.9-2-1.9c0,0,0,0,0,0H36.4z"/>
		</g>
		<g>
			<rect x="4.7" y="32" transform="matrix(0.7071 -0.7071 0.7071 0.7071 -20.5101 16.5644)" width="10.1" height="2"/>
		</g>
		<g>
			<rect x="27.5" y="28" transform="matrix(0.7071 -0.7071 0.7071 0.7071 -15.0126 29.8383)" width="2" height="10.1"/>
		</g>
		<g>
			<polygon points="38.2,37.6 23.4,37.6 23.4,35.6 36.2,35.6 36.2,35.3 38.2,35.3 			"/>
		</g>
		<g>
			<polygon points="17.3,37.6 0,37.6 0,35.3 2,35.3 2,35.6 17.3,35.6 			"/>
		</g>
		<g>
			<rect x="0.2" width="43.1" height="2"/>
		</g>
		<g>
			<rect x="20.7" y="1" width="2" height="8"/>
		</g>
		<g>
			<polygon points="20.4,49.4 12,41.1 13.4,39.7 20.4,46.6 27.3,39.7 28.7,41.1 			"/>
		</g>
		<g>
			<rect x="19.4" y="26" width="2" height="22"/>
		</g>
	</g>
</g>
</svg>
