<svg xmlns="http://www.w3.org/2000/svg" viewBox="0 0 64.49 20.42"><title>american-express</title><g id="Camada_2" data-name="Camada 2"><g id="Camada_2-2" data-name="Camada 2"><path d="M33.84,4a2.1,2.1,0,0,0,1.27-2A1.76,1.76,0,0,0,34.2.36,4.26,4.26,0,0,0,32,0H27.91V7.5H29.7V4.78h1.92c.65,0,1.05,0,1.31.32a2.22,2.22,0,0,1,.28,1.46V7.5H35V6a2.14,2.14,0,0,0-.3-1.38A2,2,0,0,0,33.84,4Zm-1.08-.94a1.62,1.62,0,0,1-.88.15H29.7V1.57h2.21a1.86,1.86,0,0,1,.85.13.68.68,0,0,1,.37.66A.77.77,0,0,1,32.76,3.08Z"/><rect x="36.15" width="1.83" height="7.5"/><path d="M57.37,0V5.23L54.21,0H51.48V7.1l-3-7.1H45.76L43.23,5.9h-.8a1.71,1.71,0,0,1-1.25-.39,2.54,2.54,0,0,1-.5-1.76,2.48,2.48,0,0,1,.52-1.7,1.74,1.74,0,0,1,1.38-.44h1.7V0H42.54a3.64,3.64,0,0,0-2.72.88,4,4,0,0,0-1,2.93,3.73,3.73,0,0,0,1,2.86,3.73,3.73,0,0,0,2.6.83h2.09l.68-1.67h3.72l.7,1.67h3.65V1.87l3.4,5.63H59.2V0ZM45.83,4.27l1.23-3,1.24,3Z"/><path d="M42.58,2.85c-.42,0-.46,0-.51.09a1.67,1.67,0,0,0-.15.81,1.91,1.91,0,0,0,.15.88,1.91,1.91,0,0,0,.35,0l.78-1.81Z"/><polygon points="49.77 14.46 49.77 12.91 43.79 12.91 43.79 20.41 49.77 20.41 49.77 18.86 45.57 18.85 45.57 17.36 49.67 17.36 49.67 15.83 45.57 15.83 45.57 14.46 49.77 14.46"/><path d="M31.71,12.91H26L23.7,15.37l-2.21-2.46H14.28v7.51h7.1l2.3-2.49,2.21,2.49h3.48V17.9h2.24c1.57,0,3.12-.43,3.12-2.51S33.13,12.91,31.71,12.91ZM20.48,18.86H16.07v-1.5H20V15.83H16.07V14.47h4.49l2,2.18Zm7.11.87-2.76-3.05,2.76-3Zm4.1-3.36H29.37V14.46h2.34c.65,0,1.1.27,1.1.92S32.38,16.38,31.69,16.37Z"/><path d="M41.52,16.93a2.13,2.13,0,0,0,1.28-2,1.77,1.77,0,0,0-.92-1.67,4.54,4.54,0,0,0-2.16-.35H35.58v7.5h1.8V17.67h1.91a1.73,1.73,0,0,1,1.32.34,2.23,2.23,0,0,1,.29,1.47v.93h1.8V18.93a2.22,2.22,0,0,0-.3-1.37A1.87,1.87,0,0,0,41.52,16.93ZM40.44,16a1.76,1.76,0,0,1-.89.15H37.37V14.46h2.21a1.77,1.77,0,0,1,.86.14.72.72,0,0,1,.37.68A.81.81,0,0,1,40.44,16Z"/><path d="M56.62,16.45a3,3,0,0,0-2-.59l-1,0a2,2,0,0,1-.7-.09.56.56,0,0,1-.39-.56.59.59,0,0,1,.27-.54,1.24,1.24,0,0,1,.72-.13h3.28v-1.6H53.2c-1.88,0-2.56,1.14-2.56,2.23,0,2.38,2.1,2.27,3.77,2.32a1,1,0,0,1,.64.17.64.64,0,0,1,.22.5.69.69,0,0,1-.21.49,1.05,1.05,0,0,1-.73.18H50.85v1.61h3.49c1.81,0,2.82-.75,2.82-2.37A2.09,2.09,0,0,0,56.62,16.45Z"/><path d="M16.35,0,14.2,5.09,11.85,0H8.92V7.1L5.87,0H3.21L0,7.5H2l.69-1.67H6.38L7.06,7.5h3.65V1.62L13.32,7.5H14.9l2.6-5.87V7.5h1.84V0ZM3.28,4.27l1.22-3,1.23,3Z"/><polygon points="26.66 1.56 26.66 0 20.67 0 20.67 7.5 26.66 7.5 26.66 5.95 22.47 5.95 22.47 4.45 26.56 4.45 26.56 2.92 22.47 2.92 22.47 1.56 26.66 1.56"/><path d="M64,16.45a3,3,0,0,0-2.05-.59l-1,0a2,2,0,0,1-.7-.09.57.57,0,0,1-.39-.56.59.59,0,0,1,.27-.54,1.24,1.24,0,0,1,.72-.13h3.29v-1.6H60.53c-1.88,0-2.57,1.14-2.57,2.23,0,2.38,2.1,2.27,3.78,2.32a1,1,0,0,1,.64.17.67.67,0,0,1,.22.5.69.69,0,0,1-.21.49,1.1,1.1,0,0,1-.74.18H58.18v1.61h3.49c1.81,0,2.82-.75,2.82-2.37A2.09,2.09,0,0,0,64,16.45Z"/></g></g></svg>