<svg xmlns="http://www.w3.org/2000/svg" viewBox="0 0 60.48 57.04"><defs><style>.cls-1,.cls-3{fill:none;stroke-width:2px;}.cls-1,.cls-2,.cls-3{stroke:#000;}.cls-1{stroke-linecap:round;stroke-linejoin:round;}.cls-2,.cls-3{stroke-miterlimit:10;}</style></defs><title>calendario</title><g id="Camada_2" data-name="Camada 2"><g id="Camada_2-2" data-name="Camada 2"><circle class="cls-1" cx="42.48" cy="39.04" r="17"/><ellipse class="cls-2" cx="42.48" cy="39.04" rx="2.11" ry="1.99"/><line class="cls-3" x1="42.57" y1="30.36" x2="42.57" y2="37.09"/><line class="cls-3" x1="35.56" y1="38.99" x2="40.46" y2="38.99"/><line class="cls-3" x1="42.57" y1="51" x2="42.57" y2="53.32"/><line class="cls-3" x1="42.57" y1="26" x2="42.57" y2="28.32"/><line class="cls-3" x1="28.41" y1="39.16" x2="30.74" y2="39.16"/><line class="cls-3" x1="53.41" y1="39.16" x2="55.74" y2="39.16"/><polyline class="cls-3" points="29.5 49 1 49 1 4 58 4 58 32.08"/><line class="cls-3" x1="9" x2="9" y2="8"/><line class="cls-3" x1="49" x2="49" y2="8"/><line class="cls-3" x1="29" x2="29" y2="8"/><rect class="cls-3" x="5" y="11" width="6" height="6"/><rect class="cls-3" x="19" y="11" width="6" height="6"/><rect class="cls-3" x="5" y="24" width="6" height="6"/><rect class="cls-3" x="19" y="24" width="6" height="6"/><rect class="cls-3" x="5" y="37" width="6" height="6"/><rect class="cls-3" x="19" y="37" width="6" height="6"/><rect class="cls-3" x="33" y="11" width="6" height="6"/><rect class="cls-3" x="47" y="11" width="6" height="6"/></g></g></svg>