<svg xmlns="http://www.w3.org/2000/svg" viewBox="0 0 68.59 56"><title>cartoes</title><g id="Camada_2" data-name="Camada 2"><g id="Camada_2-2" data-name="Camada 2"><path d="M36.57,38.86H54.86A1.08,1.08,0,0,0,56,37.71V27.43a1.08,1.08,0,0,0-1.14-1.14H36.57a1.08,1.08,0,0,0-1.14,1.14V37.71A1.08,1.08,0,0,0,36.57,38.86Zm1.14-10.29h16v8h-16Z"/><path d="M5.71,24h9.15a1.15,1.15,0,0,0,0-2.29H5.71a1.15,1.15,0,0,0,0,2.29Z"/><path d="M19.43,24h9.14a1.15,1.15,0,0,0,0-2.29H19.43a1.15,1.15,0,0,0,0,2.29Z"/><path d="M5.71,28.57H20.57a1.14,1.14,0,0,0,0-2.28H5.71a1.14,1.14,0,1,0,0,2.28Z"/><path d="M28.57,26.29H25.14a1.14,1.14,0,0,0,0,2.28h3.43a1.14,1.14,0,0,0,0-2.28Z"/><path d="M67.54,12.11a4.27,4.27,0,0,0-3.08-1.71l-2.75-.33V4.57A4.58,4.58,0,0,0,57.14,0H4.57A4.59,4.59,0,0,0,0,4.57V41.14a4.58,4.58,0,0,0,3.27,4.38,4.47,4.47,0,0,0,4,4.54L60.11,56h.46a4.57,4.57,0,0,0,4.57-3.89l3.43-36.68A4.44,4.44,0,0,0,67.54,12.11ZM2.29,8H59.43v6.86H2.29ZM4.57,2.29H57.14a2.29,2.29,0,0,1,2.29,2.28V5.71H2.29V4.57A2.28,2.28,0,0,1,4.57,2.29ZM2.29,41.14v-24H59.43v24a2.3,2.3,0,0,1-2.29,2.29H4.57A2.29,2.29,0,0,1,2.29,41.14ZM66.29,15,62.86,51.66a2.31,2.31,0,0,1-2.52,2.05L7.66,47.77A2.3,2.3,0,0,1,5.6,45.71H57.14a4.58,4.58,0,0,0,4.57-4.57V12.23l2.63.23a2,2,0,0,1,1.49.8A2.33,2.33,0,0,1,66.29,15Z"/></g></g></svg>