<svg xmlns="http://www.w3.org/2000/svg" viewBox="0 0 160.41 122.85"><defs><style>.cls-1{fill:none;stroke:#efc203;stroke-miterlimit:10;stroke-width:3px;}</style></defs><title>certification</title><g id="Camada_2" data-name="Camada 2"><g id="Camada_2-2" data-name="Camada 2"><polyline class="cls-1" points="108.48 94.86 1.5 94.86 1.5 1.5 137.45 1.5 137.45 66.95"/><polyline class="cls-1" points="124.5 107.48 116.23 119.2 113.52 109.03 102.68 111.07 111.78 96.15"/><polyline class="cls-1" points="146.5 96.48 157 111.07 146.16 109.03 143.44 119.2 136.5 108.48"/><polygon class="cls-1" points="145.96 103.46 139 102.45 136.16 108.9 130.45 104.77 124.95 109.16 121.81 102.85 114.9 104.18 115.05 97.14 108.32 95.1 111.72 88.94 106.71 84 112.58 80.13 110.44 73.42 117.44 72.73 118.66 65.8 125.18 68.44 129.48 62.86 134.03 68.23 140.43 65.29 141.96 72.16 148.99 72.53 147.16 79.33 153.21 82.92 148.43 88.09 152.12 94.08 145.48 96.43 145.96 103.46"/><circle class="cls-1" cx="130.13" cy="86.33" r="15.25"/><line class="cls-1" x1="12" y1="16.09" x2="126.08" y2="16.09"/><line class="cls-1" x1="12" y1="26.01" x2="126.08" y2="26.01"/><line class="cls-1" x1="12" y1="35.93" x2="126.08" y2="35.93"/><line class="cls-1" x1="12" y1="45.85" x2="126.08" y2="45.85"/><line class="cls-1" x1="12" y1="55.76" x2="108.57" y2="55.76"/><line class="cls-1" x1="12" y1="65.68" x2="79.4" y2="65.68"/></g></g></svg>