<svg xmlns="http://www.w3.org/2000/svg" viewBox="0 0 59.03 65"><defs><style>.cls-1{opacity:0.6;}.cls-2{fill:#efc203;}.cls-3{opacity:0.4;}</style></defs><title>chuva-e-sol</title><g id="Camada_2" data-name="Camada 2"><g id="Camada_2-2" data-name="Camada 2"><path class="cls-1" d="M44.67,26.15a7.7,7.7,0,0,0-9.77-6A14.18,14.18,0,0,0,8.68,26.06,11.61,11.61,0,0,0,11.6,48.9a1.29,1.29,0,1,0,0-2.58,9,9,0,0,1-1.49-17.93c.26,0,.87,0,1-.17s0-.79,0-1.06a11.6,11.6,0,0,1,22-4.79c.14.28.27,1,.57,1.14s.86-.42,1.15-.56a5,5,0,0,1,2.22-.51,5.11,5.11,0,0,1,5.11,4.82c0,.25-.11.81,0,1s.73.15,1,.2A9,9,0,0,1,41.4,46.32a1.29,1.29,0,0,0,0,2.57,11.6,11.6,0,0,0,3.27-22.74Z"/><path class="cls-2" d="M30.48,14.12A10.74,10.74,0,0,1,47.61,26a12.62,12.62,0,0,1,2.17,1.52A13.33,13.33,0,0,0,28,13,15.15,15.15,0,0,1,30.48,14.12Z"/><path class="cls-2" d="M58.45,28.18l-3.88-2.3a1.18,1.18,0,1,0-1.2,2l3.88,2.29a1.18,1.18,0,1,0,1.2-2Z"/><path class="cls-2" d="M53.82,14.9l4-2.12a1.17,1.17,0,0,0,.49-1.59,1.19,1.19,0,0,0-1.6-.5l-4,2.12a1.17,1.17,0,0,0-.49,1.59A1.18,1.18,0,0,0,53.82,14.9Z"/><path class="cls-2" d="M41,6.65a1.19,1.19,0,0,0,1.47-.81l1.25-4.33A1.18,1.18,0,0,0,41.41.85L40.15,5.19A1.18,1.18,0,0,0,41,6.65Z"/><path class="cls-2" d="M26.57,10.16a1.18,1.18,0,1,0,1.65-1.69L25,5.32A1.18,1.18,0,0,0,23.34,7Z"/><g class="cls-3"><path d="M35.56,46.61a1.18,1.18,0,0,1,1.67,1.67L34,51.47a1.17,1.17,0,0,1-1.67,0,1.18,1.18,0,0,1,0-1.67Z"/><path d="M29.83,46.61a1.18,1.18,0,0,1,1.67,1.67l-3.19,3.19a1.17,1.17,0,0,1-1.67,0,1.18,1.18,0,0,1,0-1.67Z"/><path d="M24.1,46.61a1.18,1.18,0,1,1,1.67,1.67l-3.19,3.19a1.17,1.17,0,0,1-1.67,0,1.18,1.18,0,0,1,0-1.67Z"/><path d="M15.18,49.8l3.19-3.19A1.18,1.18,0,0,1,20,48.28l-3.19,3.19a1.18,1.18,0,0,1-1.67-1.67Z"/><path d="M35.56,53.2a1.18,1.18,0,0,1,1.67,1.67L34,58.06a1.18,1.18,0,0,1-1.67-1.67Z"/><path d="M29.83,53.2a1.18,1.18,0,1,1,1.67,1.67l-3.19,3.19a1.18,1.18,0,0,1-1.67-1.67Z"/><path d="M24.1,53.2a1.18,1.18,0,1,1,1.67,1.67l-3.19,3.19a1.18,1.18,0,1,1-1.67-1.67Z"/><path d="M18.37,53.2A1.18,1.18,0,1,1,20,54.87l-3.19,3.19a1.18,1.18,0,0,1-1.67,0,1.17,1.17,0,0,1,0-1.67Z"/><path d="M9.45,56.39l3.19-3.19a1.18,1.18,0,1,1,1.67,1.67l-3.19,3.19a1.18,1.18,0,0,1-1.67,0A1.17,1.17,0,0,1,9.45,56.39Z"/><path d="M29.26,59.79a1.18,1.18,0,0,1,1.67,1.67l-3.19,3.19A1.18,1.18,0,0,1,26.06,63Z"/><path d="M23.52,59.79a1.2,1.2,0,0,1,1.68,0,1.18,1.18,0,0,1,0,1.67L22,64.65A1.18,1.18,0,0,1,20.33,63Z"/><path d="M17.79,59.79a1.2,1.2,0,0,1,1.68,0,1.18,1.18,0,0,1,0,1.67l-3.19,3.19A1.18,1.18,0,0,1,14.6,63Z"/><path d="M8.87,63l3.19-3.19a1.2,1.2,0,0,1,1.68,0,1.18,1.18,0,0,1,0,1.67l-3.2,3.19a1.17,1.17,0,0,1-1.67,0A1.18,1.18,0,0,1,8.87,63Z"/></g></g></g></svg>