<svg xmlns="http://www.w3.org/2000/svg" viewBox="0 0 56.27 54.81"><defs><style>.cls-1{opacity:0.6;}.cls-2{opacity:0.4;}</style></defs><title>chuva-forte_1</title><g id="Camada_2" data-name="Camada 2"><g id="Camada_2-2" data-name="Camada 2"><path class="cls-1" d="M47.41,13.57a8.16,8.16,0,0,0-8-6.68,8.28,8.28,0,0,0-2.34.34A15.06,15.06,0,0,0,9.21,13.48a12.32,12.32,0,0,0,3.11,24.24,1.37,1.37,0,1,0,0-2.74,9.58,9.58,0,0,1-1.59-19c.28,0,.92,0,1.11-.18s0-.84,0-1.12A12.32,12.32,0,0,1,35.2,9.56c.15.3.29,1.09.61,1.21s.91-.45,1.21-.6a5.43,5.43,0,0,1,7.78,4.58c0,.26-.11.85.06,1.05s.78.16,1,.21A9.58,9.58,0,0,1,44,35a1.38,1.38,0,0,0-1.24,1.37A1.36,1.36,0,0,0,44,37.7a12.31,12.31,0,0,0,3.46-24.13Z"/><g class="cls-2"><path d="M37.75,35.29a1.25,1.25,0,1,1,1.77,1.77l-3.39,3.39a1.25,1.25,0,0,1-1.77-1.77Z"/><path d="M31.66,35.29a1.26,1.26,0,1,1,1.78,1.77l-3.39,3.39a1.25,1.25,0,0,1-1.77-1.77Z"/><path d="M25.58,35.29a1.25,1.25,0,0,1,1.77,0,1.23,1.23,0,0,1,0,1.77L24,40.45a1.26,1.26,0,0,1-1.78-1.77Z"/><path d="M16.11,38.68l3.39-3.39a1.25,1.25,0,1,1,1.77,1.77l-3.39,3.39a1.25,1.25,0,0,1-1.77-1.77Z"/><path d="M37.75,42.29a1.25,1.25,0,1,1,1.77,1.77l-3.39,3.39a1.26,1.26,0,0,1-1.77-1.78Z"/><path d="M31.66,42.29a1.26,1.26,0,1,1,1.78,1.77l-3.39,3.39a1.26,1.26,0,1,1-1.77-1.78Z"/><path d="M25.58,42.29a1.25,1.25,0,0,1,1.77,0,1.23,1.23,0,0,1,0,1.77L24,47.45a1.26,1.26,0,1,1-1.78-1.78Z"/><path d="M19.5,42.29a1.25,1.25,0,1,1,1.77,1.77l-3.39,3.39a1.26,1.26,0,1,1-1.77-1.78Z"/><path d="M10,45.67l3.38-3.38a1.26,1.26,0,1,1,1.78,1.77L11.8,47.45A1.26,1.26,0,1,1,10,45.67Z"/><path d="M31.06,49.28a1.25,1.25,0,1,1,1.77,1.77l-3.39,3.39a1.25,1.25,0,1,1-1.77-1.77Z"/><path d="M25,49.28a1.26,1.26,0,0,1,1.78,1.77l-3.39,3.39a1.25,1.25,0,0,1-1.77-1.77Z"/><path d="M18.89,49.28a1.25,1.25,0,0,1,1.77,1.77l-3.38,3.39a1.26,1.26,0,0,1-1.78-1.77Z"/><path d="M9.42,52.67l3.39-3.39a1.25,1.25,0,0,1,1.77,1.77l-3.39,3.39a1.25,1.25,0,0,1-1.77-1.77Z"/></g></g></g></svg>