<svg xmlns="http://www.w3.org/2000/svg" viewBox="0 0 53.97 56.68"><title>configuracoes</title><g id="Camada_2" data-name="Camada 2"><g id="Camada_1-2" data-name="Camada 1"><path d="M22.91,56.68a3.08,3.08,0,0,1-3.06-3l-.08-3.31a3,3,0,0,0-1.28-2.15L14,45.65a3,3,0,0,0-2.5,0L8.58,47.2A3.07,3.07,0,0,1,4.48,46L.41,39a3.07,3.07,0,0,1,1-4.13l2.82-1.73a3,3,0,0,0,1.22-2.18v-5.2a3,3,0,0,0-1.23-2.18L1.45,21.83a3.06,3.06,0,0,1-1-4.13l4.07-7.06a3.08,3.08,0,0,1,4.1-1.16l2.9,1.57A3,3,0,0,0,14,11l4.51-2.59a3,3,0,0,0,1.28-2.15L19.85,3a3.09,3.09,0,0,1,3.06-3h8.15a3.08,3.08,0,0,1,3.06,3l.08,3.3a3,3,0,0,0,1.28,2.15L40,11a3,3,0,0,0,2.5,0l2.91-1.57a3.08,3.08,0,0,1,4.1,1.16l4.07,7.06a3.08,3.08,0,0,1-1,4.13L49.7,23.56a3,3,0,0,0-1.22,2.18v5.2a3,3,0,0,0,1.22,2.18l2.82,1.73a3.07,3.07,0,0,1,1,4.13L49.49,46a3.07,3.07,0,0,1-4.1,1.17l-2.91-1.58a3,3,0,0,0-2.5,0l-4.5,2.6A3,3,0,0,0,34.2,50.4l-.08,3.3a3.08,3.08,0,0,1-3.06,3ZM12.69,43.36a4.68,4.68,0,0,1,2.29.56l4.51,2.6a4.9,4.9,0,0,1,2.27,3.83l.09,3.31a1.07,1.07,0,0,0,1.06,1h8.14a1.07,1.07,0,0,0,1.07-1l.08-3.3a4.92,4.92,0,0,1,2.28-3.83l4.5-2.6a4.94,4.94,0,0,1,4.46-.06l2.91,1.58A1.05,1.05,0,0,0,47.76,45L51.83,38a1.07,1.07,0,0,0-.35-1.43l-2.82-1.72a4.92,4.92,0,0,1-2.18-3.89v-5.2a4.93,4.93,0,0,1,2.17-3.89l2.82-1.72a1.06,1.06,0,0,0,.35-1.43l-4.06-7.06a1.06,1.06,0,0,0-1.41-.41l-2.91,1.58A4.91,4.91,0,0,1,39,12.75l-4.5-2.6A4.91,4.91,0,0,1,32.2,6.32L32.12,3a1.07,1.07,0,0,0-1.06-1H22.91a1.07,1.07,0,0,0-1.06,1l-.09,3.31a4.89,4.89,0,0,1-2.27,3.83L15,12.75a4.88,4.88,0,0,1-4.45.06L7.62,11.23a1.06,1.06,0,0,0-1.41.41L2.14,18.7a1,1,0,0,0,.35,1.42l2.82,1.73a4.92,4.92,0,0,1,2.18,3.89v5.2a4.89,4.89,0,0,1-2.18,3.88L2.49,36.55A1.07,1.07,0,0,0,2.14,38L6.21,45a1.05,1.05,0,0,0,1.41.41h0l2.91-1.58A4.68,4.68,0,0,1,12.69,43.36Zm14.27-2a13,13,0,0,1-6.48-1.74h0A13,13,0,1,1,27,41.34Zm0-24a11.18,11.18,0,0,0-2.86.38,11,11,0,0,0-2.66,20.15h0a11,11,0,1,0,11-19A10.89,10.89,0,0,0,27,17.33Z"/></g></g></svg>