<svg xmlns="http://www.w3.org/2000/svg" viewBox="0 0 68.66 52.01"><defs><style>.cls-1{fill:none;stroke:#000;stroke-miterlimit:10;stroke-width:2px;}</style></defs><title>decolagem</title><g id="Camada_2" data-name="Camada 2"><g id="Camada_2-2" data-name="Camada 2"><path class="cls-1" d="M51.12,29.59a8.59,8.59,0,1,1,.08,6.7"/><path class="cls-1" d="M35.44,29.62H55.05a3,3,0,0,1,3,2.95h0a3,3,0,0,1-2.38,2.89L35.44,39.39Z"/><path class="cls-1" d="M4.24,35.48h9.28a1.72,1.72,0,0,0,1.72-1.72V23.29A13.52,13.52,0,0,0,4.3,36.59h0a7.3,7.3,0,0,0,7.3,7.3H31.52A3.92,3.92,0,0,0,35.44,40V27.11a3.92,3.92,0,0,0-3.92-3.93H25.35"/><line class="cls-1" x1="13.3" y1="43.89" x2="6.18" y2="51.01"/><line class="cls-1" x1="24.95" y1="43.89" x2="32.07" y2="51.01"/><polyline class="cls-1" points="1 49.72 1 51.01 37.24 51.01 37.24 49.72"/><line class="cls-1" x1="25.27" y1="15.41" x2="43.35" y2="15.41"/><line class="cls-1" x1="0.24" y1="15.41" x2="18.35" y2="15.41"/><polyline class="cls-1" points="14.08 9.04 21.71 1.41 29.34 9.04"/><line class="cls-1" x1="21.71" y1="28.11" x2="21.71" y2="1.41"/></g></g></svg>