<svg xmlns="http://www.w3.org/2000/svg" viewBox="0 0 35 28.08"><defs><style>.cls-1{fill:#030104;}</style></defs><title>dinner</title><g id="Camada_2" data-name="Camada 2"><g id="Camada_2-2" data-name="Camada 2"><path class="cls-1" d="M6.53,14a7.63,7.63,0,0,0,4.91,7.14V6.87A7.66,7.66,0,0,0,6.53,14Z"/><path class="cls-1" d="M30.54,3.93A15.15,15.15,0,0,0,20.36,0H14.14A13.83,13.83,0,0,0,0,14.15,14,14,0,0,0,14.09,28.08h6.34A15,15,0,0,0,30.56,24,13.45,13.45,0,0,0,35,14.15,13.76,13.76,0,0,0,30.54,3.93Zm-13,20.82a11,11,0,0,1-3.32.5,11.22,11.22,0,1,1,3.32-.5Z"/><path class="cls-1" d="M17.5,7.12a6,6,0,0,0-.58-.25V21.16a6,6,0,0,0,.58-.25,7.65,7.65,0,0,0,0-13.79Z"/></g></g></svg>