<svg xmlns="http://www.w3.org/2000/svg" viewBox="0 0 49.31 24.65"><title>elo</title><g id="Camada_2" data-name="Camada 2"><g id="Camada_2-2" data-name="Camada 2"><path d="M0,14.36A9.69,9.69,0,0,1,4.2,6.41a9.68,9.68,0,0,1,10.4-.8,9.8,9.8,0,0,1,5.12,6.12c.18.57.17.57-.36.8L11.2,16,2,20a.31.31,0,0,1-.47-.16A10.54,10.54,0,0,1,0,14.36ZM10,8.73a5.27,5.27,0,0,0-3,.88A5.84,5.84,0,0,0,4.2,14.78c0,.25.09.34.35.22.6-.27,1.21-.52,1.81-.78l7.83-3.33c.29-.12.25-.22.06-.41A5.83,5.83,0,0,0,10,8.73Z"/><path d="M21.65,10.1V.43c0-.43,0-.43.43-.43h3c.48,0,.48,0,.48.47V18.82c0,.54,0,.54.49.75l2.53,1c.24.1.32.2.21.46-.47,1.09-.91,2.19-1.37,3.29-.06.15-.11.29-.33.2-1.14-.49-2.32-.91-3.43-1.47a3.54,3.54,0,0,1-2-3.26c-.06-1.84,0-3.67,0-5.51Z"/><path d="M29.45,13.62a9.71,9.71,0,0,1,3.17-6.4c.16-.16.26-.17.42,0,.79.91,1.6,1.81,2.41,2.71.14.15.14.26,0,.41a5.82,5.82,0,0,0,0,8.44c.15.15.17.25,0,.41C34.63,20.11,33.81,21,33,22c-.18.21-.28.07-.4,0a10.34,10.34,0,0,1-2.06-2.72A10.61,10.61,0,0,1,29.45,13.62Z"/><path d="M39.41,24.65a12.77,12.77,0,0,1-2.82-.43c-.27-.08-.32-.2-.23-.45.38-1.11.74-2.21,1.1-3.32.08-.26.19-.31.45-.25a5.73,5.73,0,0,0,5.55-1.34,5.43,5.43,0,0,0,1.67-2.79c.08-.3.21-.35.48-.29q1.68.36,3.36.69c.31.05.36.19.29.47a10,10,0,0,1-4.92,6.44A10.36,10.36,0,0,1,39.41,24.65Z"/><path d="M39.32,8.73A3.73,3.73,0,0,0,38,8.92c-.33.11-.44,0-.53-.3-.35-1.08-.71-2.16-1.08-3.22-.11-.3,0-.4.25-.49a9.78,9.78,0,0,1,5.57,0,9.88,9.88,0,0,1,7.05,7.26c.13.46.11.46-.36.55-1.08.21-2.15.43-3.23.67-.31.06-.43,0-.52-.33A5.86,5.86,0,0,0,39.32,8.73Z"/><path d="M10.16,24.65A10.43,10.43,0,0,1,5,23.25c-.23-.14-.27-.25-.12-.48.64-1,1.27-2,1.89-3,.11-.19.2-.23.41-.11A5.75,5.75,0,0,0,13.91,19c.25-.21.37-.16.56,0Q15.7,20.28,17,21.56c.12.12.14.21,0,.34a9.8,9.8,0,0,1-6.09,2.69Z"/></g></g></svg>