<svg xmlns="http://www.w3.org/2000/svg" viewBox="0 0 59 59"><defs><style>.cls-1{fill:#040006;}</style></defs><title>gasolina</title><g id="Camada_2" data-name="Camada 2"><g id="Camada_2-2" data-name="Camada 2"><path class="cls-1" d="M35.68,41.66,14.17,20.16l19-19L57.86,25.81l-11.5,11.5L35.68,26.64l-3.84,2.51L40,37.33ZM17.15,20.16,35.68,38.68,37,37.33l-8.52-8.52L36,23.93l10.4,10.4,8.52-8.52L33.19,4.12Z"/><rect class="cls-1" x="34.77" y="25.29" width="2.11" height="5.27"/><path class="cls-1" d="M59,59H51.63V37.67C51.63,36,51,35.32,49.4,34l1.36-1.61c1.74,1.46,3,2.69,3,5.29V56.89h3.16V35.82a7.38,7.38,0,0,0-3.71-6.4l1-1.83A9.52,9.52,0,0,1,59,35.82Z"/><path class="cls-1" d="M22.13,14.38,15.37,7.62a.29.29,0,0,0-.19-.07H6.49V0h9.14A6.62,6.62,0,0,1,20,1.28l.09.08L27.6,8.89l-1.49,1.49L18.63,2.9a4.63,4.63,0,0,0-3-.79h-7V5.44h6.58a2.37,2.37,0,0,1,1.67.68l6.77,6.77Z"/><path class="cls-1" d="M6.32,40A6.34,6.34,0,0,1,0,33.71c0-4.59,5.35-10,5.58-10.22l.74-.75.75.75c.22.22,5.57,5.63,5.57,10.22A6.33,6.33,0,0,1,6.32,40Zm0-14.27c-1.62,1.84-4.21,5.31-4.21,7.94a4.22,4.22,0,1,0,8.43,0C10.54,31.08,7.94,27.61,6.32,25.77Z"/></g></g></svg>