<svg xmlns="http://www.w3.org/2000/svg" viewBox="0 0 65.35 36.6"><defs><style>.cls-1{fill:none;stroke:#000;stroke-miterlimit:10;stroke-width:2px;}</style></defs><title>helicoptero-silhueta_2</title><g id="Camada_2" data-name="Camada 2"><g id="Camada_2-2" data-name="Camada 2"><path d="M35.44,15.21H55.05a3,3,0,0,1,3,2.94h0A3,3,0,0,1,55.62,21L35.44,25Z"/><path d="M53.43,16.09a6.17,6.17,0,1,1,0,4.83"/><path d="M17.71,8.77H31.52a3.92,3.92,0,0,1,3.92,3.92V25.55a3.92,3.92,0,0,1-3.92,3.92H11.6a7.3,7.3,0,0,1-7.3-7.3v0A13.41,13.41,0,0,1,17.71,8.77Z"/><line class="cls-1" x1="13.3" y1="28.48" x2="6.18" y2="35.6"/><line class="cls-1" x1="24.95" y1="28.48" x2="32.07" y2="35.6"/><polyline class="cls-1" points="1 34.3 1 35.6 37.24 35.6 37.24 34.3"/><line class="cls-1" x1="18.47" y1="8.77" x2="18.47" y2="1"/><line class="cls-1" x1="0.35" y1="1" x2="37.24" y2="1"/></g></g></svg>