<svg xmlns="http://www.w3.org/2000/svg" viewBox="0 0 58 56"><defs><style>.cls-1{fill:none;stroke:#000;stroke-miterlimit:10;stroke-width:2px;}</style></defs><title>helice</title><g id="Camada_2" data-name="Camada 2"><g id="Camada_2-2" data-name="Camada 2"><path class="cls-1" d="M24,23.43a.23.23,0,0,1-.4.17L5.94,6.18A3,3,0,0,1,7.52,1a3.05,3.05,0,0,1,2,.35L24,12Z"/><path class="cls-1" d="M34.74,24a.31.31,0,0,1-.22-.53L51.82,5.94A3,3,0,0,1,57,7.52a3.05,3.05,0,0,1-.35,2L46,24Z"/><path class="cls-1" d="M34,32.35a.15.15,0,0,1,.25-.1L52.06,49.82A3,3,0,0,1,50.48,55a3.05,3.05,0,0,1-2-.35L34,44Z"/><path class="cls-1" d="M23.81,32a.08.08,0,0,1,.06.13L6.18,50.06A3,3,0,0,1,1,48.48a3.05,3.05,0,0,1,.35-2L12,32Z"/><circle class="cls-1" cx="29" cy="28" r="6"/><circle class="cls-1" cx="29" cy="28" r="2"/></g></g></svg>