<svg xmlns="http://www.w3.org/2000/svg" viewBox="0 0 86.14 20.62"><defs><style>.cls-1{fill:#030104;}</style></defs><title>hipercard</title><g id="Camada_2" data-name="Camada 2"><g id="Camada_2-2" data-name="Camada 2"><path class="cls-1" d="M12.07,15.71H9.43l1.39-7.57c-.23,0-.45-.06-.67-.07L5.58,8H3.91c-.13.66-.26,1.27-.38,1.89s-.23,1.25-.34,1.88-.21,1.35-.31,2S2.71,15,2.61,15.57c0,.06-.09.14-.14.14H0s0,0,0,0L2.73.3H5.27L4.13,6.45c.21,0,.4,0,.59,0l4.94,0h1.43L12.16.3h2.66C13.77,5.41,12.89,10.55,12.07,15.71Z"/><path class="cls-1" d="M83.08,4.85,83.86,0h2.28c-.21,1.06-.41,2.1-.62,3.14L85,5.69c-.13.66-.27,1.32-.39,2s-.23,1.45-.35,2.18-.21,1.25-.3,1.87-.12,1-.18,1.58l-.21,2.06c0,.11,0,.22,0,.34H81.49l.2-1.6a.79.79,0,0,0-.13.14,3.14,3.14,0,0,1-2.21,1.65,5.66,5.66,0,0,1-3.69-.41,2.67,2.67,0,0,1-1.4-1.89,7.81,7.81,0,0,1-.12-2.21,8.62,8.62,0,0,1,.5-2.45A7.5,7.5,0,0,1,76,6.49a5.57,5.57,0,0,1,2.6-1.72A8.68,8.68,0,0,1,80,4.51a7,7,0,0,1,2.93.33S83,4.85,83.08,4.85ZM82.8,6.39A5.51,5.51,0,0,0,80.05,6,4,4,0,0,0,79,6.32a4,4,0,0,0-1.69,1.87,7.69,7.69,0,0,0-.78,3.12,6,6,0,0,0,.09,1.47,1.89,1.89,0,0,0,1,1.47,2.79,2.79,0,0,0,1.56.19A2.32,2.32,0,0,0,80.35,14a3.6,3.6,0,0,0,1.29-1.87,17.43,17.43,0,0,0,.48-1.89c.16-.77.26-1.55.4-2.32C82.61,7.4,82.71,6.91,82.8,6.39Z"/><path class="cls-1" d="M20,20.62H17.72c1-5.29,2-10.57,2.8-15.9h2l-.16.9c.29-.16.56-.33.85-.48a6.77,6.77,0,0,1,2.21-.64,4.89,4.89,0,0,1,2.15.22,3,3,0,0,1,1.81,1.75,5.18,5.18,0,0,1,.34,2.4A9.5,9.5,0,0,1,29,12.05a9.05,9.05,0,0,1-1.34,2.29,4.35,4.35,0,0,1-2.47,1.51,6.81,6.81,0,0,1-2,.16,2.62,2.62,0,0,1-1.73-.67,4.18,4.18,0,0,1-.49-.71Zm7.38-11.9c0-.2,0-.47-.05-.74a2,2,0,0,0-.62-1.32,2.4,2.4,0,0,0-1.31-.6,3.61,3.61,0,0,0-2.62.58,1.22,1.22,0,0,0-.51.55c-.15.6-.22,1.23-.33,1.84s-.24,1.31-.37,2a5,5,0,0,0-.15,1.93,1.71,1.71,0,0,0,.93,1.28,2.75,2.75,0,0,0,1.72.26,3,3,0,0,0,1.62-.73,4.3,4.3,0,0,0,1-1.56A9.2,9.2,0,0,0,27.39,8.72Z"/><path class="cls-1" d="M65.66,15.72H63.81c-.14,0-.16-.08-.15-.19,0-.38.09-.76.13-1.14v-.21a4.93,4.93,0,0,1-2.37,1.59,4.83,4.83,0,0,1-2,.24,3.41,3.41,0,0,1-1.79-.59A2.45,2.45,0,0,1,56.73,14,4.3,4.3,0,0,1,57,11a3.73,3.73,0,0,1,1.86-1.75,6.19,6.19,0,0,1,2.18-.58c.84-.06,1.69-.07,2.53-.09a8,8,0,0,1,.83.08,4.25,4.25,0,0,0,.29-1.37,1.11,1.11,0,0,0-.88-1.13A4.34,4.34,0,0,0,62.64,6a8.31,8.31,0,0,0-1.32.12c-.83.13-1.66.29-2.53.44l.43-1.77.71-.06c.7,0,1.39-.1,2.08-.13s1.42-.06,2.12,0a4.35,4.35,0,0,1,1.55.33,1.86,1.86,0,0,1,1.2,1.69,11.68,11.68,0,0,1-.37,2.83c-.14.66-.25,1.33-.37,2s-.21,1.22-.3,1.83q-.06.47-.09.93C65.71,14.65,65.69,15.17,65.66,15.72Zm-3-5.89c-.33,0-.85.07-1.37.16a3.24,3.24,0,0,0-1.68.79,2.48,2.48,0,0,0-.78,2.13,1.42,1.42,0,0,0,1,1.38,2.87,2.87,0,0,0,1.74,0,2.8,2.8,0,0,0,1.94-1.65,10.64,10.64,0,0,0,.64-2.54c0-.15-.06-.19-.19-.2Z"/><path class="cls-1" d="M32.73,9.76c-.06.71-.16,1.37-.16,2A3,3,0,0,0,33,13.41a2.07,2.07,0,0,0,1.34.91,5.48,5.48,0,0,0,2.35,0,17.1,17.1,0,0,0,2.53-.71c0,.2-.06.38-.1.56-.07.38-.13.77-.22,1.15a.23.23,0,0,1-.15.15l-1.63.31a11.74,11.74,0,0,1-2.65.17,5.81,5.81,0,0,1-2.39-.55,3,3,0,0,1-1.77-2.49,7.38,7.38,0,0,1-.08-1.24,10.21,10.21,0,0,1,.66-3.32A7,7,0,0,1,32,6.4a4.55,4.55,0,0,1,1.79-1.33,6.8,6.8,0,0,1,2-.51,6.68,6.68,0,0,1,3.2.26,2.37,2.37,0,0,1,1.63,2.06A8.14,8.14,0,0,1,40.35,9c0,.2-.08.41-.1.61s0,.17-.17.17H38.24l-3.62-.05Zm.34-1.28.07,0h5c.14,0,.18-.07.19-.18,0-.31,0-.61,0-.91a1.44,1.44,0,0,0-.74-1.18,3,3,0,0,0-2-.28,3,3,0,0,0-2.19,1.4A2.49,2.49,0,0,0,33.07,8.48Z"/><path class="cls-1" d="M56.92,4.71l-.27,1.78c-.38-.1-.76-.22-1.15-.31A7.2,7.2,0,0,0,53.43,6a3.55,3.55,0,0,0-1.88.6,2.84,2.84,0,0,0-.82,1,7.42,7.42,0,0,0-.88,2.78,13.63,13.63,0,0,0-.08,1.81,2.44,2.44,0,0,0,.46,1.43,2,2,0,0,0,1,.65,3.66,3.66,0,0,0,1.43.18,7,7,0,0,0,2.47-.61l.3-.13c-.11.54-.21,1.05-.3,1.57a.22.22,0,0,1-.2.21,7.72,7.72,0,0,1-1.9.44,14.62,14.62,0,0,1-1.87.07,4.06,4.06,0,0,1-2.86-1.18,3,3,0,0,1-.77-1.56,6.92,6.92,0,0,1-.13-1.43,9.74,9.74,0,0,1,.7-3.45,7.89,7.89,0,0,1,1-1.81A4.16,4.16,0,0,1,50.4,5.34,6.05,6.05,0,0,1,53,4.56a18.62,18.62,0,0,1,2.11-.09c.6,0,1.19.14,1.78.21Z"/><path class="cls-1" d="M71.46,4.72,71.17,6.3a5.68,5.68,0,0,1,1.48-1.38,2.73,2.73,0,0,1,2.76-.14l-.31,1.6-.62-.11A2.62,2.62,0,0,0,72,7a4.71,4.71,0,0,0-1.07,2.08c-.2.77-.36,1.55-.52,2.34s-.25,1.41-.35,2.12-.17,1.41-.26,2.13h-2.3c.09-.45.17-.9.26-1.35.16-.78.32-1.55.47-2.33s.3-1.56.43-2.34.24-1.49.36-2.23.23-1.38.34-2.08c0-.15,0-.31.05-.46s0-.19.18-.19C70.2,4.73,70.82,4.72,71.46,4.72Z"/><path class="cls-1" d="M44.75,4.72l-.31,1.69a3.88,3.88,0,0,1,2.62-1.89,2.76,2.76,0,0,1,1.65.22l-.29,1.63-.65-.13a2.67,2.67,0,0,0-2,.42,3.73,3.73,0,0,0-1.37,1.78,14.35,14.35,0,0,0-.68,2.73c-.1.6-.15,1.21-.22,1.81l-.3,2.32c0,.14,0,.27,0,.41H40.81c.12-.63.23-1.25.35-1.87l.39-2c.14-.76.29-1.52.42-2.28s.21-1.3.32-2l.3-1.89c0-.26.06-.52.09-.78,0-.1,0-.21.16-.21C43.47,4.73,44.11,4.72,44.75,4.72Z"/><path class="cls-1" d="M18.56,4.72c-.81,3.65-1.42,7.31-2,11H14.3c0-.26.11-.52.16-.77.15-.78.3-1.55.46-2.33l.42-2.21c.1-.56.18-1.11.27-1.66s.21-1.16.3-1.74.12-.92.18-1.38c0-.25.05-.49.09-.74,0-.06.09-.15.14-.15Z"/><path class="cls-1" d="M18.28.12a.87.87,0,0,1,1,1,2.3,2.3,0,0,1-.51,1.39,1.41,1.41,0,0,1-1.05.4.87.87,0,0,1-.83-.29.89.89,0,0,1-.21-.45A2,2,0,0,1,17.18.44,1.66,1.66,0,0,1,18.28.12Z"/></g></g></svg>