<svg xmlns="http://www.w3.org/2000/svg" viewBox="0 0 1978.36 568.46"><defs><style>.cls-1{fill:#e1ca5d;}.cls-2{fill:#1b1b1b;}</style></defs><title>logo-heliquality</title><g id="Camada_2" data-name="Camada 2"><g id="Camada_10" data-name="Camada 10"><path class="cls-1" d="M653.06,389.34c-5.22-6.47-25.94-27.85-41.85-42-1.21-1.06-2.41-2.1-3.62-3.14C637.9,310,659.78,273.57,659.78,223.4,659.78,96.22,500.46,0,330.81,0,167,0,0,89.4,0,225.93c0,95.83,110.57,184.36,195.06,217.75,32.53,12.86,85.88,54.52,109.85,86.87,16.16,21.81,25.58,37.91,25.58,37.91s4.76-10.43,25.45-37.72c26.88-35.45,74.27-70.83,106.21-85.63,24.67-11.43,70.68-33.84,108.55-64.82,37.51,30.31,60.77,58.9,72.2,72.35a9.25,9.25,0,0,0,12.47,1.12c2.9-2.26,3.5-4.89,3.63-8V398.69C659,394,654.81,391.52,653.06,389.34Zm-6.14-163c0,33.92-21.25,67.63-63.34,98.12a508.83,508.83,0,0,0-108.05-64.7V81.18a13.29,13.29,0,0,1,3.64-7.31,446.49,446.49,0,0,1,71.93,31.3C624.87,145.42,646.92,194.57,646.92,226.32ZM475.53,72.66h0v0Zm-67.1-16.37a14,14,0,0,1,8,10.52V237.89c-42.21-12.38-108.73-26.74-171.68-28.15V66.07a14,14,0,0,1,7.94-10,483,483,0,0,1,155.76.22ZM185.52,372.11a14.82,14.82,0,0,1-2.37,5.69C142.53,364.59,106,346.49,77.44,325.24c23.69-11.91,64.21-27.79,108.08-37.15ZM134.88,92.38c15.46-6.94,31.24-13.23,47.55-18.72a14.23,14.23,0,0,1,3.09,5.91v133c-64.7,7-122.59,24.49-165.18,44a86.54,86.54,0,0,1-5.83-30.72C14.51,179,59.44,126.25,134.88,92.38ZM329.65,401.22a471.06,471.06,0,0,1-81-7.16,13.37,13.37,0,0,1-3.94-7.3V280.17c62.66-4.37,116.93,1.56,171.68,18.45v88.43a14.49,14.49,0,0,1-3.12,6.56A467.07,467.07,0,0,1,329.65,401.22Zm146.24-23.5,1.42-.51a12.62,12.62,0,0,1-1.78-5v-51a453.6,453.6,0,0,1,58.86,32.62A438.29,438.29,0,0,1,475.89,377.72Z"/><path class="cls-2" d="M1310.14,377.46a87.85,87.85,0,0,1-22.67,10.4,90.2,90.2,0,0,1-25.94,3.63,89.26,89.26,0,0,1-34.83-6.66,86.45,86.45,0,0,1-27.46-18,80.72,80.72,0,0,1-18-26.64,84.09,84.09,0,0,1-6.42-32.84v-.47a82.71,82.71,0,0,1,6.54-32.84,83.66,83.66,0,0,1,45.69-45.11,94.69,94.69,0,0,1,69.77,0,86.56,86.56,0,0,1,27.46,18,80.72,80.72,0,0,1,18,26.64,84.09,84.09,0,0,1,6.42,32.84v.47a82.3,82.3,0,0,1-3.73,24.77,84,84,0,0,1-10.75,22.21S1322.43,369.58,1310.14,377.46Zm-3.51-47.67a54,54,0,0,0,4.45-22.44v-.47a54.45,54.45,0,0,0-3.63-19.87,49,49,0,0,0-26.06-27.46,48,48,0,0,0-19.86-4.09,49.1,49.1,0,0,0-20,4,45.57,45.57,0,0,0-15.42,11,51.58,51.58,0,0,0-10,16.24,53.51,53.51,0,0,0-3.62,19.75v.47a54.41,54.41,0,0,0,3.62,19.87A49.3,49.3,0,0,0,1242,354.21a47.7,47.7,0,0,0,20,4.09,52.62,52.62,0,0,0,21.5-4.44C1295.36,348.93,1306.63,329.79,1306.63,329.79Z"/><path class="cls-2" d="M1552.52,392.11a55.76,55.76,0,0,1-16.71-2.45,39.13,39.13,0,0,1-13.67-7.37,35.09,35.09,0,0,1-9.23-12,38,38,0,0,1-3.39-16.48v-.47a39.23,39.23,0,0,1,3.74-17.76,34.12,34.12,0,0,1,10.4-12.39,46.77,46.77,0,0,1,15.89-7.36,79.35,79.35,0,0,1,20.45-2.45,87.08,87.08,0,0,1,16.71,1.4,103.64,103.64,0,0,1,13.91,3.74v-2.11q0-11.2-6.78-17.06t-20.1-5.84a83.37,83.37,0,0,0-18.11,1.75,122.42,122.42,0,0,0-16.48,5l-8.88-27.11a139.27,139.27,0,0,1,21.5-7.25q11.22-2.81,27.11-2.8,14.73,0,25.13,3.62a44.67,44.67,0,0,1,17.18,10.4,42.08,42.08,0,0,1,10.28,17.18,74.22,74.22,0,0,1,3.27,22.79v72.68h-34.35V376.22a49.49,49.49,0,0,1-15.66,11.57Q1565.61,392.11,1552.52,392.11Zm10.75-24.54q12.63,0,20.22-6.08a19.4,19.4,0,0,0,7.6-15.89v-6.31a54.92,54.92,0,0,0-10.4-3.39,56.39,56.39,0,0,0-12.27-1.29q-11.46,0-18,4.45t-6.54,12.85v.47c0,4.83,1.78,8.57,5.37,11.22S1557.51,367.57,1563.27,367.57Z"/><path class="cls-2" d="M1268.75,317.7,1353.63,348v33.18l-84.88-30.3Z"/><polygon class="cls-2" points="846.39 226.31 846.39 307.29 780.01 283.31 780.01 239.38 744.02 226.37 744.02 389.77 780.01 389.77 780.01 316.5 846.39 340.48 846.39 389.77 882.38 389.77 882.38 239.31 846.39 226.31"/><polygon class="cls-2" points="1044.11 224.46 1044.11 389.77 1079.64 389.77 1079.64 237.3 1044.11 224.46"/><rect class="cls-2" x="1110.02" y="264.5" width="35.53" height="125.28"/><polygon class="cls-2" points="1109.08 219.4 1109.08 250.71 1146.48 250.71 1146.48 232.91 1109.08 219.4"/><polygon class="cls-2" points="1652.32 219.4 1652.32 389.77 1687.85 389.77 1687.85 232.23 1652.32 219.4"/><rect class="cls-2" x="1718.23" y="264.5" width="35.53" height="125.28"/><polygon class="cls-2" points="1717.29 219.4 1717.29 250.71 1754.69 250.71 1754.69 232.91 1717.29 219.4"/><path class="cls-2" d="M1454.36,264.5v69.71q0,12.59-6,19t-16.24,6.41q-10.29,0-15.89-6.41t-5.61-19V277.33l-35.52-12.83h0v81.1q0,21.73,11.1,34.12t31.44,12.39a41.33,41.33,0,0,0,12.15-1.65,40.31,40.31,0,0,0,9.82-4.47,46.16,46.16,0,0,0,8.06-6.48,74.75,74.75,0,0,0,6.66-7.65v17.91h35.53V277.33Z"/><path class="cls-2" d="M1823.86,246.3l-35.52-13.8v32h-15v30.38h15v59.37q0,11,2.69,18.11a29.63,29.63,0,0,0,7.48,11.57,26.44,26.44,0,0,0,11.45,6.19,58.2,58.2,0,0,0,14.84,1.76,56,56,0,0,0,15.66-2,54.81,54.81,0,0,0,12.39-5.26V356.12a34.75,34.75,0,0,1-17.53,4.67q-11.46,0-11.46-12.2V294.88h29.45V264.5h-29.45Z"/><path class="cls-2" d="M1947.52,294.33l-17.78,55.48-24-71.7-43.46-16.87,50.36,129q-2.34,4.68-5,6.43a13.36,13.36,0,0,1-7.36,1.75,23.68,23.68,0,0,1-7.6-1.4,39.87,39.87,0,0,1-7.59-3.51l-11.92,25.71a68.51,68.51,0,0,0,14.26,6.31,58,58,0,0,0,17.29,2.34,47.6,47.6,0,0,0,14-1.87,29.36,29.36,0,0,0,10.87-6.08,44.94,44.94,0,0,0,8.77-10.86,98.17,98.17,0,0,0,7.48-16.25l32.49-86.59Z"/><path class="cls-2" d="M989.24,358.44a42.21,42.21,0,0,1-5,2.59,39.68,39.68,0,0,1-15.89,3q-11.92,0-20-6.19t-10.64-18.35H1025c.15-1.71.27-3.35.35-4.91s.12-3,.12-4.44a89.73,89.73,0,0,0-3.63-25.59,62.63,62.63,0,0,0-11.21-21.73,55.26,55.26,0,0,0-19.05-15.08q-11.46-5.61-27.11-5.61a59.39,59.39,0,0,0-44.65,19.17A64,64,0,0,0,907,302.13a70,70,0,0,0-4.56,25.24v.47a67.89,67.89,0,0,0,4.91,26.29,61.56,61.56,0,0,0,13.67,20.45,60.07,60.07,0,0,0,20.8,13.32,71.27,71.27,0,0,0,26.06,4.68q17.05,0,29.68-6.2a62.94,62.94,0,0,0,21.49-17.16ZM946.3,297.92q6.9-7.25,18.12-7.25t18,7.37q6.78,7.36,8.42,19.28H937.3Q939.42,305.17,946.3,297.92Z"/></g></g></svg>