<svg xmlns="http://www.w3.org/2000/svg" viewBox="0 0 36.85 23.94"><title>mastercard</title><g id="Camada_2" data-name="Camada 2"><g id="Camada_2-2" data-name="Camada 2"><path d="M24.88,0a11.88,11.88,0,0,0-6.47,1.92A11.83,11.83,0,0,0,12,0a12,12,0,0,0,0,23.94A11.83,11.83,0,0,0,18.41,22,12,12,0,1,0,24.88,0ZM12,22.39A10.42,10.42,0,1,1,17.08,2.91a12.55,12.55,0,0,0-1.31,1.32l-.06.06a12.34,12.34,0,0,0-1.86,3.05.14.14,0,0,0,0,.06A12.08,12.08,0,0,0,13,10.47s0,0,0,.06h0A11.32,11.32,0,0,0,12.92,12,11,11,0,0,0,13,13.39h0s0,0,0,.06a11.37,11.37,0,0,0,.81,3.08.08.08,0,0,0,0,.05,11.53,11.53,0,0,0,1.87,3.06l0,.06A11.58,11.58,0,0,0,17.08,21,10.37,10.37,0,0,1,12,22.39Zm12.91,0a10.36,10.36,0,0,1-6.72-2.47h2.4a.78.78,0,1,0,0-1.55H16.68a10.52,10.52,0,0,1-.89-1.32h6.52a.78.78,0,0,0,0-1.55H15.09a11.79,11.79,0,0,1-.39-1.32h8.37a.78.78,0,1,0,0-1.55H14.5c0-.22,0-.44,0-.66s0-.44,0-.66h8.57a.78.78,0,1,0,0-1.55H14.7a11.79,11.79,0,0,1,.39-1.32h7.22a.78.78,0,0,0,0-1.55H15.79a9.84,9.84,0,0,1,.89-1.32h3.88a.78.78,0,1,0,0-1.55h-2.4a10.42,10.42,0,1,1,6.72,18.37Z"/></g></g></svg>