<svg xmlns="http://www.w3.org/2000/svg" viewBox="0 0 61 39.72"><defs><style>.cls-1{opacity:0.6;}</style></defs><title>nublado_1</title><g id="Camada_2" data-name="Camada 2"><g id="Camada_2-2" data-name="Camada 2"><path class="cls-1" d="M53.14,11.5A12.84,12.84,0,0,0,29.39,6.18a6.78,6.78,0,0,0-2-.3A7,7,0,0,0,22.7,7.7,12.83,12.83,0,0,0,7.86,19a10.52,10.52,0,0,0,2.65,20.69l.11,0H37.51a10.51,10.51,0,0,0,3-20.59,7,7,0,0,0-8.85-5.41,12.76,12.76,0,0,0-5.95-5.15,4.66,4.66,0,0,1,1.72-.33,4.52,4.52,0,0,1,2,.46c.26.13.77.6,1,.5s.39-.77.52-1A10.51,10.51,0,0,1,50.87,12.5c0,.24-.13.77,0,.95s.71.12.94.16a8.18,8.18,0,0,1-1.35,16.24,1.17,1.17,0,0,0,0,2.34A10.52,10.52,0,0,0,53.14,11.5ZM30,15.68c.13.26.25.94.52,1s.78-.37,1-.5a4.53,4.53,0,0,1,2-.46,4.63,4.63,0,0,1,4.62,4.36c0,.23-.1.73,0,.9s.66.14.88.18a8.18,8.18,0,0,1-1.66,16.19h-27A8.18,8.18,0,0,1,9.16,21.14c.23,0,.78,0,.94-.16s0-.72,0-.95A10.51,10.51,0,0,1,30,15.68Z"/></g></g></svg>