<svg xmlns="http://www.w3.org/2000/svg" viewBox="0 0 50.68 61.77"><defs><style>.cls-1{fill:none;stroke:#000;stroke-miterlimit:10;stroke-width:2px;}</style></defs><title>oleo</title><g id="Camada_2" data-name="Camada 2"><g id="Camada_2-2" data-name="Camada 2"><polygon class="cls-1" points="27.88 8.51 24.52 6.78 20.18 15.2 23.55 16.93 14.01 35.45 25.8 41.52 39.67 14.58 27.88 8.51"/><polygon class="cls-1" points="49.34 20.62 34.17 50.09 27.43 46.62 25.75 45.75 27.48 42.38 32.53 44.99 44.24 22.26 40.87 20.52 42.6 17.16 49.34 20.62"/><rect class="cls-1" x="10.52" y="38.27" width="17.04" height="3.79" transform="translate(20.5 -4.26) rotate(27.24)"/><path class="cls-1" d="M10.68,41.64H23.93a0,0,0,0,1,0,0v2.08a1.71,1.71,0,0,1-1.71,1.71H12.38a1.71,1.71,0,0,1-1.71-1.71V41.64a0,0,0,0,1,0,0Z" transform="translate(21.85 -3.09) rotate(27.24)"/><rect class="cls-1" x="37.72" y="15.03" width="3.79" height="7.57" transform="translate(13.01 -16.05) rotate(27.24)"/><polyline class="cls-1" points="20.84 5.64 21.68 6.08 22.42 4.64 24.95 5.94 19.75 16.04 17.22 14.74 17.97 13.29 17.12 12.86"/><path class="cls-1" d="M14.7,13.44l1.68.86,5.2-10.1L19.9,3.34,1.1,1A.09.09,0,0,0,1,1.16Z"/><line class="cls-1" x1="11.86" y1="2.39" x2="8.83" y2="8.29"/><rect class="cls-1" x="9.18" y="44.38" width="7.57" height="15.15" transform="translate(25.22 -0.17) rotate(27.24)"/></g></g></svg>