<svg xmlns="http://www.w3.org/2000/svg" viewBox="0 0 52 53.86"><title>paypal</title><g id="Camada_2" data-name="Camada 2"><g id="Camada_2-2" data-name="Camada 2"><path d="M47.85,12.9a11.76,11.76,0,0,0-2.68-7C42.09,2.24,36.55.31,29.16.31,26.29.31,11.43,0,11.28,0h0A1.27,1.27,0,0,0,10,1L0,45.46a1.29,1.29,0,0,0,.25,1.07,1.27,1.27,0,0,0,1,.46H7.89l-1.2,5.29a1.28,1.28,0,0,0,1.24,1.58H24.6a1.28,1.28,0,0,0,1.26-1L28,42l7.81-.06h.11c.13,0,13.24-1.49,15.85-16.73C52.85,18.59,50.36,14.9,47.85,12.9ZM12.27,2.56c3.48.08,14.41.32,16.89.32,6.52,0,11.51,1.69,14.05,4.7,1.89,2.25,2.51,5.39,1.85,9.25C42.7,30.59,31.67,32.25,30.68,32.37l-9.31.1h0a1.15,1.15,0,0,0-1.26.86L17.89,44.44h-15ZM49.19,24.72c-2.21,13-12.6,14.49-13.52,14.6l-8.79.07a1.3,1.3,0,0,0-1.25,1L23.54,51.31h-14l1-4.32h8.42a1.28,1.28,0,0,0,1.26-1L22.41,34.7l8.32.06h.13c.14,0,14-1.5,16.73-17.59l.12-.79C49.29,18.46,49.79,21.26,49.19,24.72Z"/></g></g></svg>