<svg xmlns="http://www.w3.org/2000/svg" viewBox="0 0 68.66 49.41"><defs><style>.cls-1{fill:none;stroke:#000;stroke-miterlimit:10;stroke-width:2px;}</style></defs><title>pouso</title><g id="Camada_2" data-name="Camada 2"><g id="Camada_2-2" data-name="Camada 2"><path class="cls-1" d="M23.24,29.48h8.28a3.92,3.92,0,0,0,3.92-3.93V12.69a3.91,3.91,0,0,0-3.92-3.92H17.71A13.4,13.4,0,0,0,4.3,22.17h0a7.3,7.3,0,0,0,7.3,7.31h5.73"/><path class="cls-1" d="M15.24,8.77V19.34a1.72,1.72,0,0,1-1.72,1.72H4.24"/><path class="cls-1" d="M51.12,15.18a8.58,8.58,0,1,1,.08,6.7"/><path class="cls-1" d="M35.44,15.21H55.05a3,3,0,0,1,3,2.94h0A3,3,0,0,1,55.62,21L35.44,25Z"/><line class="cls-1" x1="13.3" y1="29.48" x2="6.18" y2="36.6"/><line class="cls-1" x1="24.95" y1="29.48" x2="32.07" y2="36.6"/><polyline class="cls-1" points="23.35 36.6 37.24 36.6 37.24 35.3"/><polyline class="cls-1" points="1 35.3 1 36.6 17.33 36.6"/><line class="cls-1" x1="0.24" y1="1" x2="43.35" y2="1"/><line class="cls-1" x1="21.71" y1="9" x2="21.71" y2="1"/><polyline class="cls-1" points="27.98 40.37 20.35 48 12.72 40.37"/><line class="cls-1" x1="20.35" y1="26" x2="20.35" y2="48"/></g></g></svg>