<svg xmlns="http://www.w3.org/2000/svg" viewBox="0 0 44.95 44.95"><defs><style>.cls-1{fill:#efc203;}</style></defs><title>sol_1</title><g id="Camada_2" data-name="Camada 2"><g id="Camada_2-2" data-name="Camada 2"><path class="cls-1" d="M22.47,35A12.48,12.48,0,1,1,35,22.47,12.49,12.49,0,0,1,22.47,35Zm0-22.45a10,10,0,1,0,10,10A10,10,0,0,0,22.47,12.5Z"/><path class="cls-1" d="M22.47,6.74a1.24,1.24,0,0,1-1.25-1.25V1.25a1.25,1.25,0,0,1,2.5,0V5.49A1.24,1.24,0,0,1,22.47,6.74Z"/><path class="cls-1" d="M10.47,11.72a1.25,1.25,0,0,1-.89-.37l-3-3A1.25,1.25,0,0,1,8.35,6.58l3,3a1.25,1.25,0,0,1,0,1.77A1.21,1.21,0,0,1,10.47,11.72Z"/><path class="cls-1" d="M5.5,23.72H1.25a1.25,1.25,0,0,1,0-2.5H5.5a1.25,1.25,0,0,1,0,2.5Z"/><path class="cls-1" d="M7.47,38.73a1.28,1.28,0,0,1-.89-.36,1.25,1.25,0,0,1,0-1.77l3-3a1.25,1.25,0,0,1,1.77,1.76l-3,3A1.24,1.24,0,0,1,7.47,38.73Z"/><path class="cls-1" d="M22.47,45a1.25,1.25,0,0,1-1.25-1.25V39.45a1.25,1.25,0,0,1,2.5,0V43.7A1.24,1.24,0,0,1,22.47,45Z"/><path class="cls-1" d="M37.48,38.73a1.24,1.24,0,0,1-.88-.36l-3-3a1.24,1.24,0,0,1,1.76-1.76l3,3a1.27,1.27,0,0,1,0,1.77A1.28,1.28,0,0,1,37.48,38.73Z"/><path class="cls-1" d="M43.7,23.73H39.45a1.25,1.25,0,0,1,0-2.5H43.7a1.25,1.25,0,0,1,0,2.5Z"/><path class="cls-1" d="M34.48,11.72a1.21,1.21,0,0,1-.88-.37,1.25,1.25,0,0,1,0-1.77l3-3a1.25,1.25,0,0,1,1.77,0,1.27,1.27,0,0,1,0,1.77l-3,3A1.21,1.21,0,0,1,34.48,11.72Z"/></g></g></svg>