<svg xmlns="http://www.w3.org/2000/svg" viewBox="0 0 47.83 14.73"><title>visa</title><g id="Camada_2" data-name="Camada 2"><g id="Camada_2-2" data-name="Camada 2"><polygon points="19.15 0.24 16.72 14.51 20.61 14.51 23.04 0.24 19.15 0.24"/><path d="M13.46.26,9.65,10l-.4-1.47A15.27,15.27,0,0,0,3.86,2.61L7.34,14.5h4.12L17.58.26Z"/><path d="M7.77,1.28A1.56,1.56,0,0,0,6.08.12h-6L0,.41C4.69,1.55,7.8,4.29,9.08,7.58Z"/><path d="M30.92,3a7.12,7.12,0,0,1,2.91.55l.35.16L34.71.6A10,10,0,0,0,31.23,0c-3.84,0-6.55,1.93-6.57,4.71,0,2.05,1.93,3.19,3.4,3.87s2,1.15,2,1.77c0,1-1.21,1.4-2.33,1.4A8.21,8.21,0,0,1,24.09,11l-.5-.23L23,14a12.59,12.59,0,0,0,4.34.76c4.08,0,6.74-1.92,6.77-4.88,0-1.62-1-2.86-3.27-3.87-1.36-.66-2.19-1.1-2.18-1.77S29.4,3,30.92,3Z"/><path d="M44.69.26h-3a1.92,1.92,0,0,0-2,1.18L33.87,14.52H38s.66-1.76.81-2.14h5c.12.5.48,2.14.48,2.14h3.6Zm-4.8,9.2,1.55-4s.32-.83.52-1.36l.26,1.23s.75,3.4.9,4.12Z"/></g></g></svg>